#!OML:ASF F:\VICON\USERDATA\INSTALL\rory3\rory3.ASF
:FULLY-SPECIFIED
:DEGREES
65
root -0.0918291 17.9869 -0.789557 2.83067 -11.567 1.07834
lowerback -1.41899 -1.73102 -3.88622
upperback -1.16406 -2.27047 2.15525
thorax -0.162961 -1.11186 4.36827
lowerneck -21.1505 0.610833 -8.97536
upperneck 32.5128 3.66268 1.81938
head 14.6092 0.655156 2.95638
rclavicle -1.02529e-014 -1.59028e-015
rhumerus -33.8808 -4.67972 -79.6747
rradius 29.598
rwrist 20.9879
rhand -17.4926 8.77681
rfingers 7.12502
rthumb 8.76002 -21.0214
lclavicle -1.02529e-014 -1.59028e-015
lhumerus -9.09126 -24.6166 87.181
lradius 86.9776
lwrist -0.113677
lhand -35.147 26.9341
lfingers 7.12502
lthumb -8.28663 56.7515
rfemur -8.89592 9.59199 15.2257
rtibia 25.3418
rfoot -15.9936 -3.26493
rtoes 4.07033
lfemur 0.52715 -2.0616 -21.6229
ltibia 11.9032
lfoot -10.7016 7.36094
ltoes -12.2737
66
root -0.0925442 17.9875 -0.787223 2.79773 -11.4505 1.06433
lowerback -1.38041 -1.74997 -3.90227
upperback -1.16765 -2.29693 2.17367
thorax -0.184165 -1.12443 4.39727
lowerneck -21.1104 0.5812 -9.07003
upperneck 32.4352 3.61815 1.9022
head 14.5638 0.640842 2.99552
rclavicle 1.97542e-014 -7.95139e-016
rhumerus -33.91 -4.72174 -79.5845
rradius 29.4493
rwrist 21.0256
rhand -17.3465 8.66135
rfingers 7.12502
rthumb 8.90102 -21.1309
lclavicle 1.97542e-014 -7.95139e-016
lhumerus -8.72729 -24.7854 86.9063
lradius 87.8524
lwrist -0.293803
lhand -35.1333 27.1899
lfingers 7.12502
lthumb -8.27345 57.0079
rfemur -8.81961 9.53323 15.2621
rtibia 25.3398
rfoot -16.0539 -3.29324
rtoes 4.17772
lfemur 0.559822 -2.08056 -21.5924
ltibia 11.9059
lfoot -10.702 7.27937
ltoes -12.448
67
root -0.0933162 17.9873 -0.785612 2.7863 -11.378 1.10683
lowerback -1.4183 -1.74414 -3.95159
upperback -1.1328 -2.28715 2.14871
thorax -0.127252 -1.12137 4.39748
lowerneck -21.1005 0.5472 -9.10983
upperneck 32.3142 3.56001 1.95337
head 14.5084 0.624888 3.00922
rclavicle 1.02188e-014 -2.38542e-015
rhumerus -33.8847 -4.84481 -79.5408
rradius 29.362
rwrist 21.0684
rhand -17.1664 8.44242
rfingers 7.12502
rthumb 9.07474 -21.3424
lclavicle 1.02188e-014 -2.38542e-015
lhumerus -8.2735 -25.0282 86.5591
lradius 88.7552
lwrist -0.490666
lhand -35.0769 27.4879
lfingers 7.12502
lthumb -8.21903 57.308
rfemur -8.80536 9.4814 15.2284
rtibia 25.3653
rfoot -16.0842 -3.33169
rtoes 4.05836
lfemur 0.572566 -2.0359 -21.6206
ltibia 11.8653
lfoot -10.71 7.17658
ltoes -12.4762
68
root -0.094137 17.9872 -0.783718 2.76069 -11.2959 1.19963
lowerback -1.46049 -1.74491 -4.00683
upperback -1.09049 -2.28572 2.07329
thorax -0.0611723 -1.12288 4.34821
lowerneck -21.1189 0.508355 -9.08127
upperneck 32.206 3.48586 1.96692
head 14.4688 0.604042 2.99406
rclavicle -3.75827e-014 -6.36111e-015
rhumerus -33.8617 -4.99033 -79.5441
rradius 29.2699
rwrist 21.1615
rhand -17.1453 8.46961
rfingers 7.12502
rthumb 9.09516 -21.3143
lclavicle -3.75827e-014 -6.36111e-015
lhumerus -7.74228 -25.2532 86.0802
lradius 89.6719
lwrist -0.373659
lhand -34.925 27.4134
lfingers 7.12502
lthumb -8.07239 57.2392
rfemur -8.8125 9.44834 15.1386
rtibia 25.4264
rfoot -16.1145 -3.39944
rtoes 4.03729
lfemur 0.634111 -1.96445 -21.7013
ltibia 11.7414
lfoot -10.6669 7.03428
ltoes -12.4869
69
root -0.0941372 17.9857 -0.779968 2.69746 -11.1104 1.32253
lowerback -1.45918 -1.78496 -4.09779
upperback -1.07232 -2.33793 2.00775
thorax -0.0369218 -1.14964 4.33013
lowerneck -21.0489 0.484821 -9.01916
upperneck 32.0693 3.42732 1.93057
head 14.3981 0.588512 2.95285
rclavicle -4.92986e-014 1.63003e-014
rhumerus -33.8939 -5.14053 -79.5135
rradius 29.1613
rwrist 21.3204
rhand -17.3488 8.51565
rfingers 7.12502
rthumb 8.89877 -21.2767
lclavicle -4.92986e-014 1.63003e-014
lhumerus -7.24619 -25.3666 85.6613
lradius 90.5179
lwrist -0.142109
lhand -34.7235 27.1957
lfingers 7.12502
lthumb -7.8779 57.0289
rfemur -8.74365 9.31855 15.0249
rtibia 25.4877
rfoot -16.1887 -3.40102
rtoes 4.10896
lfemur 0.721085 -1.97084 -21.8186
ltibia 11.6398
lfoot -10.5589 6.86421
ltoes -12.91
70
root -0.0956128 17.9835 -0.777173 2.60683 -10.9277 1.416
lowerback -1.42293 -1.82638 -4.21169
upperback -1.03815 -2.39297 1.97057
thorax -0.0133477 -1.17804 4.35516
lowerneck -21.0395 0.482699 -8.92335
upperneck 31.9702 3.39586 1.89567
head 14.356 0.586741 2.91375
rclavicle -4.9075e-016 0
rhumerus -33.9151 -5.25113 -79.4782
rradius 29.1173
rwrist 21.4418
rhand -17.3819 8.43769
rfingers 7.12502
rthumb 8.86685 -21.356
lclavicle -4.9075e-016 0
lhumerus -6.7725 -25.594 85.234
lradius 91.2871
lwrist -0.236658
lhand -34.8038 27.4701
lfingers 7.12502
lthumb -7.95536 57.3004
rfemur -8.63061 9.22355 14.9569
rtibia 25.5461
rfoot -16.3056 -3.42115
rtoes 4.10153
lfemur 0.840484 -1.98272 -21.8995
ltibia 11.5444
lfoot -10.4811 6.70555
ltoes -12.9623
71
root -0.0966073 17.9832 -0.775941 2.57859 -10.9057 1.38942
lowerback -1.42357 -1.82431 -4.21165
upperback -1.01354 -2.38998 1.97216
thorax 0.0120871 -1.17767 4.35631
lowerneck -21.0124 0.476103 -8.83943
upperneck 31.8484 3.37318 1.8219
head 14.3008 0.582516 2.86135
rclavicle 1.30297e-014 -5.1684e-015
rhumerus -33.9256 -5.30263 -79.465
rradius 29.0921
rwrist 21.4501
rhand -17.2669 8.33956
rfingers 7.12502
rthumb 8.97783 -21.4494
lclavicle 1.30297e-014 -5.1684e-015
lhumerus -6.31108 -25.8101 84.8037
lradius 91.9831
lwrist -0.647134
lhand -34.9771 27.6924
lfingers 7.12502
lthumb -8.1227 57.5163
rfemur -8.59911 9.24773 14.9995
rtibia 25.5818
rfoot -16.3487 -3.45635
rtoes 4.12881
lfemur 0.916474 -1.97474 -21.8635
ltibia 11.4844
lfoot -10.4732 6.66244
ltoes -12.9015
72
root -0.0964153 17.9839 -0.775698 2.57925 -10.9344 1.39541
lowerback -1.45449 -1.80195 -4.19096
upperback -0.998988 -2.35894 1.93268
thorax 0.0386352 -1.16315 4.30304
lowerneck -20.9096 0.458878 -8.86332
upperneck 31.6602 3.30842 1.90724
head 14.1953 0.573951 2.8815
rclavicle -1.41976e-014 -1.59028e-015
rhumerus -33.9215 -5.44007 -79.466
rradius 29.0232
rwrist 21.5206
rhand -17.2526 8.43702
rfingers 7.12502
rthumb 8.99156 -21.3514
lclavicle -1.41976e-014 -1.59028e-015
lhumerus -5.857 -25.9974 84.3308
lradius 92.6558
lwrist -1.21368
lhand -35.1519 27.5792
lfingers 7.12502
lthumb -8.29133 57.3965
rfemur -8.61279 9.29981 14.9876
rtibia 25.5935
rfoot -16.3541 -3.47649
rtoes 4.15258
lfemur 0.926614 -2.04343 -21.8753
ltibia 11.4756
lfoot -10.5043 6.73333
ltoes -12.6305
73
root -0.0968772 17.9833 -0.775421 2.58419 -10.8906 1.36152
lowerback -1.48501 -1.79079 -4.14104
upperback -0.975211 -2.34321 1.91607
thorax 0.0759361 -1.15681 4.25646
lowerneck -20.7916 0.432008 -8.88693
upperneck 31.4126 3.2372 1.96174
head 14.0627 0.560835 2.88592
rclavicle 3.85332e-014 -4.77083e-015
rhumerus -33.9053 -5.52068 -79.4594
rradius 28.9807
rwrist 21.5954
rhand -17.3663 8.59459
rfingers 7.12502
rthumb 8.88188 -21.1985
lclavicle 3.85332e-014 -4.77083e-015
lhumerus -5.29783 -26.1296 83.8361
lradius 93.3473
lwrist -1.62317
lhand -35.1965 27.842
lfingers 7.12502
lthumb -8.33443 57.6575
rfemur -8.59099 9.26129 15.0317
rtibia 25.5738
rfoot -16.3343 -3.51081
rtoes 4.09686
lfemur 0.888148 -2.0549 -21.8292
ltibia 11.5451
lfoot -10.5311 6.67837
ltoes -12.5778
74
root -0.0995544 17.9832 -0.774671 2.55901 -10.8643 1.34059
lowerback -1.45565 -1.78384 -4.15229
upperback -0.966771 -2.33484 1.91882
thorax 0.0678347 -1.15255 4.26667
lowerneck -20.7171 0.4313 -8.89666
upperneck 31.2239 3.21429 1.99419
head 13.9638 0.563851 2.88989
rclavicle 4.18752e-014 -4.77083e-015
rhumerus -33.9222 -5.50441 -79.482
rradius 28.9692
rwrist 21.5841
rhand -17.5137 8.84855
rfingers 7.12502
rthumb 8.73964 -20.9505
lclavicle 4.18752e-014 -4.77083e-015
lhumerus -4.69862 -26.2051 83.323
lradius 94.1634
lwrist -1.41453
lhand -35.2228 28.6952
lfingers 7.12502
lthumb -8.35979 58.5097
rfemur -8.53271 9.27832 15.0718
rtibia 25.5565
rfoot -16.3505 -3.54416
rtoes 3.96242
lfemur 0.882957 -1.98272 -21.7976
ltibia 11.6243
lfoot -10.5463 6.61723
ltoes -12.6994
75
root -0.100761 17.9812 -0.775209 2.51765 -10.8256 1.28064
lowerback -1.39071 -1.78866 -4.05653
upperback -0.953709 -2.34456 1.89633
thorax 0.0412708 -1.15732 4.19098
lowerneck -20.6938 0.434403 -8.94861
upperneck 31.1172 3.1835 2.13551
head 13.9083 0.57005 2.94688
rclavicle -1.24334e-014 -1.15295e-014
rhumerus -33.9533 -5.48403 -79.5561
rradius 28.9834
rwrist 21.5606
rhand -17.5796 9.09436
rfingers 7.12502
rthumb 8.67609 -20.7073
lclavicle -1.24334e-014 -1.15295e-014
lhumerus -4.11752 -26.2872 82.7487
lradius 94.8579
lwrist -1.36761
lhand -35.3154 29.1079
lfingers 7.12502
lthumb -8.44917 58.9189
rfemur -8.44867 9.28613 15.1572
rtibia 25.5309
rfoot -16.3673 -3.57797
rtoes 4.01518
lfemur 0.902302 -2.01824 -21.7289
ltibia 11.7057
lfoot -10.5777 6.62073
ltoes -12.5178
76
root -0.100744 17.98 -0.776258 2.52792 -10.7727 1.24987
lowerback -1.37969 -1.78688 -3.95254
upperback -0.990933 -2.34383 1.85187
thorax -0.0091265 -1.1554 4.08739
lowerneck -20.5621 0.427866 -9.05908
upperneck 30.9923 3.10852 2.38843
head 13.8204 0.567643 3.04842
rclavicle 4.05707e-014 -7.95139e-016
rhumerus -34.1139 -5.50224 -79.5977
rradius 29.0764
rwrist 21.5785
rhand -17.5376 9.0363
rfingers 7.12502
rthumb 8.7166 -20.7637
lclavicle 4.05707e-014 -7.95139e-016
lhumerus -3.64922 -26.4292 82.2325
lradius 95.4817
lwrist -1.49515
lhand -35.5244 28.9598
lfingers 7.12502
lthumb -8.65082 58.7625
rfemur -8.43443 9.27156 15.1966
rtibia 25.5054
rfoot -16.3814 -3.59073
rtoes 4.06411
lfemur 0.845005 -2.08115 -21.6877
ltibia 11.781
lfoot -10.5825 6.61436
ltoes -12.2878
